<svg width="1440" height="900" viewBox="0 0 1440 900" fill="none" xmlns="http://www.w3.org/2000/svg">
<circle cx="108" cy="197" r="4" fill="#D9D9D9"/>
<circle cx="337" cy="582" r="4" fill="#D9D9D9"/>
<circle cx="765" cy="583" r="4" fill="#D9D9D9"/>
<circle cx="1085" cy="540" r="4" fill="#D9D9D9"/>
<circle cx="1055" cy="634" r="4" fill="#D9D9D9"/>
<circle cx="730" cy="691" r="4" fill="#D9D9D9"/>
<circle cx="295" cy="691" r="4" fill="#D9D9D9"/>
<circle cx="102" cy="529" r="4" fill="#D9D9D9"/>
<circle cx="575" cy="548" r="4" fill="#D9D9D9"/>
<circle cx="834" cy="381" r="4" fill="#D9D9D9"/>
<circle cx="364" cy="324" r="4" fill="#D9D9D9"/>
<circle cx="696" cy="119" r="4" fill="#D9D9D9"/>
<circle cx="364" cy="111" r="4" fill="#D9D9D9"/>
<circle cx="1273" cy="176" r="4" fill="#D9D9D9"/>
<circle cx="1269" cy="623" r="4" fill="#D9D9D9"/>
<circle cx="1211" cy="369" r="4" fill="#D9D9D9"/>
<circle cx="971" cy="335" r="4" fill="#D9D9D9"/>
<circle cx="533" cy="764" r="4" fill="#D9D9D9"/>
<circle cx="59" cy="787" r="4" fill="#D9D9D9"/>
<circle cx="1224" cy="780" r="4" fill="#D9D9D9"/>
<circle cx="948" cy="799" r="4" fill="#D9D9D9"/>
<circle cx="45" cy="127" r="4" fill="#D9D9D9"/>
<circle cx="33" cy="469" r="4" fill="#D9D9D9"/>
<circle cx="1134" cy="119" r="4" fill="#D9D9D9"/>
<circle cx="918" cy="119" r="4" fill="#D9D9D9"/>
<circle cx="529" cy="111" r="4" fill="#D9D9D9"/>
<circle cx="236" cy="107" r="4" fill="#D9D9D9"/>
<circle cx="214" cy="97" r="4" fill="#D9D9D9"/>
<circle cx="443" cy="482" r="4" fill="#D9D9D9"/>
<circle cx="871" cy="483" r="4" fill="#D9D9D9"/>
<circle cx="1191" cy="440" r="4" fill="#D9D9D9"/>
<circle cx="1161" cy="534" r="4" fill="#D9D9D9"/>
<circle cx="836" cy="591" r="4" fill="#D9D9D9"/>
<circle cx="401" cy="591" r="4" fill="#D9D9D9"/>
<circle cx="208" cy="429" r="4" fill="#D9D9D9"/>
<circle cx="681" cy="448" r="4" fill="#D9D9D9"/>
<circle cx="940" cy="281" r="4" fill="#D9D9D9"/>
<circle cx="470" cy="224" r="4" fill="#D9D9D9"/>
<circle cx="802" cy="19" r="4" fill="#D9D9D9"/>
<circle cx="470" cy="11" r="4" fill="#D9D9D9"/>
<circle cx="1379" cy="76" r="4" fill="#D9D9D9"/>
<circle cx="1375" cy="523" r="4" fill="#D9D9D9"/>
<circle cx="1317" cy="269" r="4" fill="#D9D9D9"/>
<circle cx="1077" cy="235" r="4" fill="#D9D9D9"/>
<circle cx="639" cy="664" r="4" fill="#D9D9D9"/>
<circle cx="165" cy="687" r="4" fill="#D9D9D9"/>
<circle cx="1330" cy="680" r="4" fill="#D9D9D9"/>
<circle cx="1054" cy="699" r="4" fill="#D9D9D9"/>
<circle cx="151" cy="27" r="4" fill="#D9D9D9"/>
<circle cx="139" cy="369" r="4" fill="#D9D9D9"/>
<circle cx="1240" cy="19" r="4" fill="#D9D9D9"/>
<circle cx="1024" cy="19" r="4" fill="#D9D9D9"/>
<circle cx="635" cy="11" r="4" fill="#D9D9D9"/>
<circle cx="342" cy="7" r="4" fill="#D9D9D9"/>
<circle cx="214" cy="294" r="4" fill="#D9D9D9"/>
<circle cx="443" cy="679" r="4" fill="#D9D9D9"/>
<circle cx="871" cy="680" r="4" fill="#D9D9D9"/>
<circle cx="1191" cy="637" r="4" fill="#D9D9D9"/>
<circle cx="1161" cy="731" r="4" fill="#D9D9D9"/>
<circle cx="836" cy="788" r="4" fill="#D9D9D9"/>
<circle cx="401" cy="788" r="4" fill="#D9D9D9"/>
<circle cx="208" cy="626" r="4" fill="#D9D9D9"/>
<circle cx="681" cy="645" r="4" fill="#D9D9D9"/>
<circle cx="940" cy="478" r="4" fill="#D9D9D9"/>
<circle cx="470" cy="421" r="4" fill="#D9D9D9"/>
<circle cx="802" cy="216" r="4" fill="#D9D9D9"/>
<circle cx="470" cy="208" r="4" fill="#D9D9D9"/>
<circle cx="1379" cy="273" r="4" fill="#D9D9D9"/>
<circle cx="1375" cy="720" r="4" fill="#D9D9D9"/>
<circle cx="1317" cy="466" r="4" fill="#D9D9D9"/>
<circle cx="1077" cy="432" r="4" fill="#D9D9D9"/>
<circle cx="639" cy="861" r="4" fill="#D9D9D9"/>
<circle cx="165" cy="884" r="4" fill="#D9D9D9"/>
<circle cx="1330" cy="877" r="4" fill="#D9D9D9"/>
<circle cx="1054" cy="896" r="4" fill="#D9D9D9"/>
<circle cx="151" cy="224" r="4" fill="#D9D9D9"/>
<circle cx="139" cy="566" r="4" fill="#D9D9D9"/>
<circle cx="1240" cy="216" r="4" fill="#D9D9D9"/>
<circle cx="1024" cy="216" r="4" fill="#D9D9D9"/>
<circle cx="635" cy="208" r="4" fill="#D9D9D9"/>
<circle cx="342" cy="204" r="4" fill="#D9D9D9"/>
</svg>
